<svg xmlns="http://www.w3.org/2000/svg" viewBox="0 0 32 32" id="cinema-ticket"><path fill="#fee27d" d="M29.31,25.5a2.29,2.29,0,0,1,2.19-2.37V21.34a1.14,1.14,0,0,1-1.09-1.18h0A1.14,1.14,0,0,1,31.5,19V17.19A1.14,1.14,0,0,1,30.41,16h0a1.14,1.14,0,0,1,1.09-1.19V13a1.14,1.14,0,0,1-1.09-1.19h0a1.14,1.14,0,0,1,1.09-1.18V8.88A2.3,2.3,0,0,1,29.31,6.5H2.69A2.3,2.3,0,0,1,.5,8.88v1.78a1.14,1.14,0,0,1,1.09,1.18h0A1.14,1.14,0,0,1,.5,13v1.78A1.14,1.14,0,0,1,1.59,16h0A1.14,1.14,0,0,1,.5,17.19V19a1.14,1.14,0,0,1,1.09,1.19h0A1.14,1.14,0,0,1,.5,21.34v1.79A2.29,2.29,0,0,1,2.69,25.5Z"></path><path fill="#fddd5a" d="M31.5,10.66V8.88A2.3,2.3,0,0,1,29.31,6.5h-1A2.3,2.3,0,0,0,30.5,8.88v1.78a1.19,1.19,0,0,0,0,2.37v1.78a1.19,1.19,0,0,0,0,2.38V19a1.19,1.19,0,0,0,0,2.37v1.79a2.29,2.29,0,0,0-2.19,2.37h1a2.29,2.29,0,0,1,2.19-2.37V21.34a1.19,1.19,0,0,1,0-2.37V17.19a1.19,1.19,0,0,1,0-2.38V13a1.19,1.19,0,0,1,0-2.37Z"></path><path fill="#fff" d="M28.5,21.13a2.29,2.29,0,0,0-2.19,2.37H5.69A2.29,2.29,0,0,0,3.5,21.13V10.88A2.3,2.3,0,0,0,5.69,8.5H26.31a2.3,2.3,0,0,0,2.19,2.38Z"></path><path fill="#e1e1e3" d="M26.31,8.5h-1a2.3,2.3,0,0,0,2.19,2.38V21.13a2.29,2.29,0,0,0-2.19,2.37h1a2.29,2.29,0,0,1,2.19-2.37V10.88A2.3,2.3,0,0,1,26.31,8.5Z"></path><rect width="13" height="3" x="9.5" y="11.5" fill="#469ed6"></rect><rect width="1" height="3" x="21.5" y="11.5" fill="#227fc0"></rect><rect width="8" height="3" x="12" y="17.5" fill="#ed4769"></rect><rect width="1" height="3" x="19" y="17.5" fill="#eb304a"></rect><rect width="1" height="10" x="25" y="11" fill="#aeadb3"></rect><rect width="1" height="10" x="6" y="11" fill="#aeadb3"></rect><path d="M11.5,21h9V17h-9Zm1-3h7v2h-7ZM6,21H7V11H6Zm19,0h1V11H25ZM26.81,8.5V8H5.19v.5A1.8,1.8,0,0,1,3.5,10.38H3V21.63h.5A1.79,1.79,0,0,1,5.19,23.5V24H26.81v-.5a1.79,1.79,0,0,1,1.69-1.87H29V10.38h-.5A1.8,1.8,0,0,1,26.81,8.5ZM28,20.67A2.84,2.84,0,0,0,25.85,23H6.15A2.84,2.84,0,0,0,4,20.67V11.33A2.84,2.84,0,0,0,6.15,9h19.7A2.84,2.84,0,0,0,28,11.33Zm3.5-9.51H32V8.38h-.5A1.8,1.8,0,0,1,29.81,6.5V6H2.19v.5A1.8,1.8,0,0,1,.5,8.38H0v2.78H.5a.63.63,0,0,1,.59.68.64.64,0,0,1-.59.69H0v2.78H.5a.7.7,0,0,1,0,1.38H0v2.78H.5a.64.64,0,0,1,.59.69.63.63,0,0,1-.59.68H0v2.79H.5A1.79,1.79,0,0,1,2.19,25.5V26H29.81v-.5a1.79,1.79,0,0,1,1.69-1.87H32V20.84h-.5a.63.63,0,0,1-.59-.68.64.64,0,0,1,.59-.69H32V16.69h-.5a.7.7,0,0,1,0-1.38H32V12.53h-.5a.64.64,0,0,1-.59-.69A.63.63,0,0,1,31.5,11.16Zm-.5-.92a1.73,1.73,0,0,0,0,3.21v1a1.72,1.72,0,0,0,0,3.2v.95a1.73,1.73,0,0,0,0,3.21v.91A2.84,2.84,0,0,0,28.85,25H3.15A2.84,2.84,0,0,0,1,22.67v-.91a1.69,1.69,0,0,0,1.09-1.6A1.7,1.7,0,0,0,1,18.55V17.6a1.72,1.72,0,0,0,0-3.2v-1a1.7,1.7,0,0,0,1.09-1.61A1.69,1.69,0,0,0,1,10.24V9.33A2.84,2.84,0,0,0,3.15,7h25.7A2.84,2.84,0,0,0,31,9.33ZM9,15H23V11H9Zm1-3H22v2H10Z"></path></svg>